# xmcd
# 
# Track frame offsets:
#     150
#     36232
#     96467
#     164222
# 
# Disc length: 3046
# 
# Revision: 2
# Processed by: cddbd v1.5.1PL2 Copyright (c) Steve Scherf et al.
# Submitted via: BonkEnc v1.0beta3
# 
DISCID=360be404
DTITLE=大新書局 - 大家的日本語 初級 I
DYEAR=1998
DGENRE=Books
TTITLE0=第０課 （初級 I, 發音, P.24)
TTITLE1=第１課 （初級 I, P.28)
TTITLE2=第２課 （初級 I, P.38)
TTITLE3=第３課 （初級 I, P.48)
EXTD=
EXTT0=
EXTT1=
EXTT2=
EXTT3=
PLAYORDER=
